<svg width="912" height="410" viewBox="0 0 912 410" fill="none" xmlns="http://www.w3.org/2000/svg">
<path d="M682.467 409.128H611.795L719.479 97.1948H804.468L912 409.128H841.327L763.192 168.476H760.755L682.467 409.128ZM678.05 286.517H844.983V337.998H678.05V286.517Z" fill="white"/>
<path d="M110.578 409.128H0V97.1948H111.492C142.868 97.1948 169.878 103.44 192.521 115.929C215.165 128.317 232.579 146.137 244.764 169.39C257.05 192.643 263.193 220.465 263.193 252.857C263.193 285.35 257.05 313.273 244.764 336.628C232.579 359.982 215.063 377.904 192.216 390.393C169.471 402.883 142.258 409.128 110.578 409.128ZM65.9507 352.62H107.836C127.332 352.62 143.731 349.168 157.033 342.263C170.436 335.257 180.489 324.443 187.19 309.821C193.993 295.098 197.395 276.109 197.395 252.857C197.395 229.807 193.993 210.971 187.19 196.349C180.489 181.727 170.487 170.964 157.185 164.059C143.883 157.155 127.484 153.702 107.988 153.702H65.9507V352.62Z" fill="white"/>
<path fill-rule="evenodd" clip-rule="evenodd" d="M493.658 112.965C493.658 106.135 492.994 99.4595 491.728 93C543.498 106.329 585.15 144.855 602.833 194.725H512.417C499.577 183.823 483.585 176.521 466 174.379C481.847 158.304 493.658 139.557 493.658 112.965Z" fill="white"/>
<path d="M347.118 127.301L351.737 164.028C404.146 127.895 430.623 62.4352 418.028 0C452.195 16.8229 475.704 51.9908 475.704 92.646C475.704 133.006 448.496 155.295 421.264 177.602C393.989 199.946 366.69 222.309 366.69 262.869C366.69 309.167 402.256 347.157 447.557 351.009V409.365C303.406 405.964 239.173 220.027 347.118 127.301Z" fill="#E2804F"/>
<path fill-rule="evenodd" clip-rule="evenodd" d="M501.171 401.598C483.897 407.209 465.707 409.793 447.557 409.365V351.009C466.206 352.595 485.18 348.193 501.171 338.434C518 328.164 531.13 312.429 538.095 293.696H501.171H447.557V235.615H501.171H539.337H565.507H611.42C611.785 240.035 611.972 244.505 611.972 249.019C611.972 264.523 609.771 279.514 605.667 293.696C598.115 319.788 584.116 343.141 565.507 361.918C547.733 379.853 525.753 393.614 501.171 401.598Z" fill="white"/>
</svg>
